<?xml version="1.0" standalone="no"?>
<!DOCTYPE svg PUBLIC "-//W3C//DTD SVG 20010904//EN"
 "http://www.w3.org/TR/2001/REC-SVG-20010904/DTD/svg10.dtd">
<svg version="1.0" xmlns="http://www.w3.org/2000/svg"
 width="380.000000pt" height="380.000000pt" viewBox="0 0 380.000000 380.000000"
 preserveAspectRatio="xMidYMid meet">

<g transform="translate(0.000000,380.000000) scale(0.100000,-0.100000)"
fill="#000000" stroke="none">
<path d="M806 2774 c-14 -14 -16 -89 -16 -683 0 -560 2 -670 14 -687 14 -19
38 -19 1090 -22 1067 -2 1076 -2 1096 18 20 20 20 32 20 689 0 595 -2 671 -16
685 -14 14 -127 16 -1094 16 -967 0 -1080 -2 -1094 -16z m2064 -678 l0 -574
-22 -6 c-33 -9 -1891 -7 -1905 2 -9 6 -12 144 -13 572 -1 311 -1 568 0 573 0
4 437 7 970 7 l970 0 0 -574z"/>
<path d="M666 1234 c-69 -63 -127 -122 -130 -130 -11 -29 -6 -61 12 -77 17
-16 125 -17 1354 -17 1281 0 1336 1 1351 18 17 19 22 48 11 76 -3 8 -61 67
-130 130 l-124 116 -1110 0 -1110 0 -124 -116z"/>
</g>
</svg>
