<?xml version="1.0" standalone="no"?>
<!DOCTYPE svg PUBLIC "-//W3C//DTD SVG 20010904//EN"
 "http://www.w3.org/TR/2001/REC-SVG-20010904/DTD/svg10.dtd">
<svg version="1.0" xmlns="http://www.w3.org/2000/svg"
 width="380.000000pt" height="380.000000pt" viewBox="0 0 380.000000 380.000000"
 preserveAspectRatio="xMidYMid meet">

<g transform="translate(0.000000,380.000000) scale(0.100000,-0.100000)"
fill="#000000" stroke="none">
<path d="M241 2834 c-30 -8 -69 -24 -88 -35 -47 -29 -100 -95 -119 -148 -10
-25 -21 -50 -26 -55 -11 -13 -11 -1379 0 -1392 5 -5 16 -30 26 -55 34 -94 121
-167 224 -188 75 -16 3209 -16 3284 0 106 22 188 92 230 198 l23 56 0 685 0
685 -24 60 c-31 76 -107 154 -176 181 -49 18 -97 19 -1675 21 -1400 2 -1633 0
-1679 -13z m2949 -934 l0 -780 -1380 0 -1380 0 0 780 0 780 1380 0 1380 0 0
-780z m-2946 254 c14 -5 16 -37 16 -255 l0 -249 -27 -6 c-56 -15 -58 -9 -61
251 -2 167 1 242 9 251 12 15 37 18 63 8z m3309 -98 c72 -30 117 -121 97 -196
-39 -145 -225 -177 -310 -53 -35 51 -35 135 0 186 48 69 136 96 213 63z"/>
</g>
</svg>
